{
  "accessors": [
    {
      "bufferView": 2,
      "componentType": 5126,
      "count": 282,
      "max": [
        14.195323944091797,
        6.807758808135986,
        7.7657060623168945
      ],
      "min": [
        -14.19532299041748,
        -6.807753086090088,
        -7.765707969665527
      ],
      "type": "VEC3"
    },
    {
      "bufferView": 2,
      "byteOffset": 3384,
      "componentType": 5126,
      "count": 282,
      "max": [
        1.0,
        1.0,
        1.0
      ],
      "min": [
        -1.0,
        -1.0,
        -0.9966434836387634
      ],
      "type": "VEC3"
    },
    {
      "bufferView": 1,
      "componentType": 5126,
      "count": 282,
      "max": [
        1.0,
        1.2573729753494263
      ],
      "min": [
        -0.015085999853909016,
        0.25737300515174866
      ],
      "type": "VEC2"
    },
    {
      "bufferView": 0,
      "componentType": 5125,
      "count": 516,
      "type": "SCALAR"
    },
    {
      "bufferView": 2,
      "byteOffset": 6768,
      "componentType": 5126,
      "count": 22,
      "max": [
        14.195323944091797,
        -0.513018012046814,
        7.765113830566406
      ],
      "min": [
        -13.176636695861816,
        -5.531364917755127,
        -6.884191989898682
      ],
      "type": "VEC3"
    },
    {
      "bufferView": 2,
      "byteOffset": 7032,
      "componentType": 5126,
      "count": 22,
      "max": [
        0.9999814629554749,
        0.9389721155166626,
        0.8343037962913513
      ],
      "min": [
        0.0,
        0.0051580024883151054,
        -0.3443032205104828
      ],
      "type": "VEC3"
    },
    {
      "bufferView": 1,
      "byteOffset": 2256,
      "componentType": 5126,
      "count": 22,
      "max": [
        0.9073050022125244,
        1.2143969535827637
      ],
      "min": [
        -0.015085999853909016,
        0.29694101214408875
      ],
      "type": "VEC2"
    },
    {
      "bufferView": 0,
      "byteOffset": 2064,
      "componentType": 5125,
      "count": 54,
      "type": "SCALAR"
    },
    {
      "bufferView": 2,
      "byteOffset": 7296,
      "componentType": 5126,
      "count": 28,
      "max": [
        13.653138160705566,
        6.712862014770508,
        6.373964786529541
      ],
      "min": [
        -13.683773040771484,
        -0.20562900602817535,
        6.373963832855225
      ],
      "type": "VEC3"
    },
    {
      "bufferView": 2,
      "byteOffset": 7632,
      "componentType": 5126,
      "count": 28,
      "max": [
        0.0,
        -0.0,
        -1.0
      ],
      "min": [
        0.0,
        -0.0,
        -1.0
      ],
      "type": "VEC3"
    },
    {
      "bufferView": 1,
      "byteOffset": 2432,
      "componentType": 5126,
      "count": 28,
      "max": [
        1.2270619869232178,
        1.0055220127105713
      ],
      "min": [
        0.007141000125557184,
        0.01889899931848049
      ],
      "type": "VEC2"
    },
    {
      "bufferView": 0,
      "byteOffset": 2280,
      "componentType": 5125,
      "count": 54,
      "type": "SCALAR"
    }
  ],
  "asset": {
    "extras": {
      "author": "Inditrion Dradnon (https://sketchfab.com/dradnon)",
      "license": "CC-BY-4.0 (http://creativecommons.org/licenses/by/4.0/)",
      "source": "https://sketchfab.com/3d-models/wall-computer-small-d809550d310b4aa48326d230457a10ce",
      "title": "Wall Computer Small"
    },
    "generator": "Sketchfab-12.63.0",
    "version": "2.0"
  },
  "bufferViews": [
    {
      "buffer": 0,
      "byteLength": 2496,
      "name": "floatBufferViews",
      "target": 34963
    },
    {
      "buffer": 0,
      "byteLength": 2656,
      "byteOffset": 2496,
      "byteStride": 8,
      "name": "floatBufferViews",
      "target": 34962
    },
    {
      "buffer": 0,
      "byteLength": 7968,
      "byteOffset": 5152,
      "byteStride": 12,
      "name": "floatBufferViews",
      "target": 34962
    }
  ],
  "buffers": [
    {
      "byteLength": 13120,
      "uri": "scene.bin"
    }
  ],
  "images": [
    {
      "uri": "textures/MaterialFBXASC032FBXASC0352142150880_baseColor.jpeg"
    },
    {
      "uri": "textures/MaterialFBXASC032FBXASC0352142150880_metallicRoughness.png"
    },
    {
      "uri": "textures/MaterialFBXASC032FBXASC0352142172430_baseColor.jpeg"
    },
    {
      "uri": "textures/MaterialFBXASC032FBXASC0352142171025_baseColor.jpeg"
    }
  ],
  "materials": [
    {
      "doubleSided": true,
      "name": "MaterialFBXASC032FBXASC0352142150880",
      "pbrMetallicRoughness": {
        "baseColorTexture": {
          "index": 0
        },
        "metallicRoughnessTexture": {
          "index": 1
        }
      }
    },
    {
      "doubleSided": true,
      "emissiveFactor": [
        1.0,
        1.0,
        1.0
      ],
      "emissiveTexture": {
        "index": 2
      },
      "name": "MaterialFBXASC032FBXASC0352142172430",
      "pbrMetallicRoughness": {
        "baseColorTexture": {
          "index": 2
        },
        "metallicFactor": 0.0
      }
    },
    {
      "doubleSided": true,
      "emissiveFactor": [
        1.0,
        1.0,
        1.0
      ],
      "emissiveTexture": {
        "index": 3
      },
      "name": "MaterialFBXASC032FBXASC0352142171025",
      "pbrMetallicRoughness": {
        "baseColorTexture": {
          "index": 3
        },
        "metallicFactor": 0.0
      }
    }
  ],
  "meshes": [
    {
      "name": "MaterialFBXASC032FBXASC0352142150880",
      "primitives": [
        {
          "attributes": {
            "NORMAL": 1,
            "POSITION": 0,
            "TEXCOORD_0": 2
          },
          "indices": 3,
          "material": 0,
          "mode": 4
        }
      ]
    },
    {
      "name": "MaterialFBXASC032FBXASC0352142172430",
      "primitives": [
        {
          "attributes": {
            "NORMAL": 5,
            "POSITION": 4,
            "TEXCOORD_0": 6
          },
          "indices": 7,
          "material": 1,
          "mode": 4
        }
      ]
    },
    {
      "name": "MaterialFBXASC032FBXASC0352142171025",
      "primitives": [
        {
          "attributes": {
            "NORMAL": 9,
            "POSITION": 8,
            "TEXCOORD_0": 10
          },
          "indices": 11,
          "material": 2,
          "mode": 4
        }
      ]
    }
  ],
  "nodes": [
    {
      "children": [
        1
      ],
      "matrix": [
        1.0,
        0.0,
        0.0,
        0.0,
        0.0,
        2.220446049250313e-16,
        -1.0,
        0.0,
        0.0,
        1.0,
        2.220446049250313e-16,
        0.0,
        0.0,
        0.0,
        0.0,
        1.0
      ],
      "name": "Sketchfab_model"
    },
    {
      "children": [
        2
      ],
      "matrix": [
        1.0,
        0.0,
        0.0,
        0.0,
        0.0,
        -4.371139006309477e-08,
        0.999999999999999,
        0.0,
        0.0,
        -0.999999999999999,
        -4.371139006309477e-08,
        0.0,
        0.0,
        0.0,
        0.0,
        1.0
      ],
      "name": "Collada visual scene group"
    },
    {
      "children": [
        3,
        4,
        5
      ],
      "matrix": [
        0.737783,
        0.0,
        0.0,
        0.0,
        0.0,
        -0.141373,
        0.527611,
        0.0,
        0.0,
        -0.335131,
        -0.089798,
        0.0,
        25.463663,
        1.987309,
        -38.641071,
        1.0
      ],
      "name": "WallFBXASC032Computer"
    },
    {
      "mesh": 0,
      "name": "MaterialFBXASC032FBXASC0352142150880"
    },
    {
      "mesh": 1,
      "name": "MaterialFBXASC032FBXASC0352142172430"
    },
    {
      "mesh": 2,
      "name": "MaterialFBXASC032FBXASC0352142171025"
    }
  ],
  "samplers": [
    {
      "magFilter": 9729,
      "minFilter": 9987,
      "wrapS": 10497,
      "wrapT": 10497
    }
  ],
  "scene": 0,
  "scenes": [
    {
      "name": "Sketchfab_Scene",
      "nodes": [
        0
      ]
    }
  ],
  "textures": [
    {
      "sampler": 0,
      "source": 0
    },
    {
      "sampler": 0,
      "source": 1
    },
    {
      "sampler": 0,
      "source": 2
    },
    {
      "sampler": 0,
      "source": 3
    }
  ]
}
