<?xml version="1.0" standalone="no"?>
<!DOCTYPE svg PUBLIC "-//W3C//DTD SVG 20010904//EN"
 "http://www.w3.org/TR/2001/REC-SVG-20010904/DTD/svg10.dtd">
<svg version="1.0" xmlns="http://www.w3.org/2000/svg"
 width="500.000000pt" height="499.000000pt" viewBox="0 0 500.000000 499.000000"
 preserveAspectRatio="xMidYMid meet">

<g transform="translate(0.000000,499.000000) scale(0.100000,-0.100000)"
fill="#000000" stroke="none">
<path d="M0 2495 l0 -2495 2500 0 2500 0 0 2495 0 2495 -2500 0 -2500 0 0
-2495z m1676 91 c46 -109 84 -200 84 -202 0 -2 -18 -4 -39 -4 -39 0 -40 1 -61
57 -12 32 -26 61 -31 64 -14 8 -145 12 -168 4 -11 -3 -28 -29 -41 -65 -21 -57
-24 -60 -56 -60 -19 0 -34 2 -34 5 0 3 48 119 107 258 l107 251 24 -54 c13
-30 62 -145 108 -254z m1853 50 c56 -131 101 -242 101 -247 0 -5 -16 -9 -36
-9 -34 0 -37 3 -61 59 -28 65 -37 71 -120 71 -78 0 -95 -10 -122 -74 -21 -52
-25 -56 -57 -56 -31 0 -33 2 -25 23 10 24 175 415 194 459 6 15 15 24 18 20 4
-4 53 -114 108 -246z m-1609 125 l0 -106 103 108 c91 96 106 108 145 113 44 7
54 -3 27 -26 -8 -7 -52 -53 -96 -101 l-81 -89 106 -140 106 -140 -44 0 -45 0
-85 115 c-47 63 -89 115 -93 115 -3 0 -15 -7 -25 -17 -15 -13 -18 -32 -18
-115 l0 -99 -32 3 -33 3 -3 235 c-1 129 0 240 2 246 2 6 18 9 35 6 l31 -4 0
-107z m647 94 c37 -15 39 -22 20 -50 -12 -16 -18 -16 -47 -7 -49 17 -120 15
-142 -5 -23 -21 -23 -65 0 -86 9 -8 51 -31 92 -50 41 -18 81 -42 89 -51 8 -10
17 -44 19 -76 4 -49 1 -64 -18 -90 -42 -59 -137 -77 -234 -44 -53 18 -63 32
-46 63 10 20 12 20 42 5 16 -9 54 -18 83 -21 48 -5 56 -3 79 20 30 31 34 76 9
100 -10 8 -53 32 -96 52 -98 47 -114 69 -109 157 5 87 143 131 259 83z m221
-89 l3 -106 124 0 125 0 0 104 0 104 30 4 c17 3 32 2 35 0 3 -3 5 -115 5 -249
l0 -243 -35 0 -35 0 0 110 0 111 -122 -3 -123 -3 -5 -105 -5 -105 -31 -3 c-21
-2 -33 2 -37 12 -4 9 -3 121 0 249 l6 234 31 -2 31 -2 3 -107z m975 -11 c32
-60 62 -113 65 -117 4 -4 35 46 68 110 l62 117 41 3 c22 2 41 0 41 -4 0 -4
-37 -73 -82 -153 l-83 -146 -5 -90 -5 -90 -35 0 -35 0 -5 90 c-5 87 -7 95 -56
180 -94 166 -114 202 -114 212 0 5 18 7 42 4 41 -6 42 -7 101 -116z m-2743
-95 l0 -210 125 0 125 0 0 -35 0 -35 -160 0 -160 0 0 245 0 245 35 0 35 0 0
-210z m54 -431 c19 -15 26 -30 26 -54 0 -47 -37 -75 -101 -75 l-49 0 0 75 0
75 49 0 c34 0 56 -6 75 -21z m190 5 c20 -20 21 -58 1 -74 -11 -9 -12 -17 -5
-30 13 -25 13 -30 -5 -30 -8 0 -19 9 -25 20 -6 11 -21 20 -34 20 -15 0 -26 -7
-29 -20 -3 -11 -10 -20 -16 -20 -7 0 -11 27 -11 75 l0 75 54 0 c36 0 60 -5 70
-16z m186 7 c0 -6 -21 -11 -47 -13 -35 -2 -48 -7 -48 -18 0 -10 13 -16 43 -18
56 -4 54 -22 -3 -22 -41 0 -45 -2 -45 -25 0 -23 3 -25 50 -25 28 0 50 -4 50
-10 0 -6 -28 -10 -65 -10 l-65 0 0 75 0 75 65 0 c36 0 65 -4 65 -9z m163 -66
c34 -69 35 -75 17 -75 -11 0 -20 5 -20 10 0 6 -22 10 -49 10 -28 0 -53 -4 -56
-10 -8 -12 -25 -13 -25 -1 0 5 14 39 31 75 20 43 37 66 48 66 11 0 29 -26 54
-75z m117 50 c29 -31 28 -31 64 0 48 41 56 34 56 -50 0 -59 -3 -75 -14 -75
-11 0 -16 15 -18 51 l-3 51 -28 -22 -28 -22 -25 23 c-17 16 -24 18 -25 8 0 -8
-1 -29 -2 -48 -1 -19 -8 -36 -14 -38 -10 -4 -13 15 -13 71 0 85 9 94 50 51z
m444 19 c26 -10 7 -24 -24 -17 -39 7 -80 -19 -80 -52 0 -35 40 -59 86 -50 28
5 35 3 32 -7 -3 -8 -24 -14 -51 -16 -39 -3 -51 1 -72 22 -32 32 -32 70 0 101
24 25 73 33 109 19z m201 -19 c30 -30 32 -64 4 -99 -17 -21 -29 -26 -65 -26
-55 0 -84 25 -84 75 0 48 29 75 80 75 30 0 47 -7 65 -25z m197 -5 c25 -31 23
-66 -7 -95 -19 -20 -34 -25 -75 -25 l-50 0 0 76 0 76 57 -4 c43 -4 61 -10 75
-28z m178 16 c0 -10 -13 -14 -47 -12 -38 1 -48 -3 -51 -16 -3 -15 4 -18 42
-18 25 0 46 -4 46 -10 0 -5 -21 -10 -46 -10 -41 0 -45 -2 -42 -22 3 -20 10
-23 51 -26 71 -5 57 -22 -18 -22 l-65 0 0 75 0 75 65 0 c49 0 65 -3 65 -14z
m327 -2 c2 -7 -10 -11 -35 -10 -48 1 -72 -17 -72 -55 0 -33 33 -52 81 -47 16
2 29 -1 31 -7 2 -5 -20 -11 -47 -13 -62 -4 -95 21 -95 71 0 37 7 49 35 65 24
14 97 11 102 -4z m184 -5 c21 -21 19 -56 -6 -73 -11 -8 -10 -14 2 -33 13 -20
13 -23 1 -23 -8 0 -23 9 -33 20 -10 11 -29 20 -42 20 -16 0 -23 -6 -23 -20 0
-11 -7 -20 -15 -20 -12 0 -15 15 -15 75 l0 75 55 0 c42 0 60 -5 76 -21z m189
12 c0 -6 -24 -11 -52 -13 -39 -2 -53 -7 -53 -18 0 -10 13 -16 43 -18 53 -4 56
-22 3 -22 -30 0 -40 -4 -44 -19 -7 -27 0 -31 55 -31 26 0 48 -4 48 -10 0 -6
-28 -10 -65 -10 l-65 0 0 75 0 75 65 0 c36 0 65 -4 65 -9z m155 -63 c36 -76
37 -90 5 -70 -24 14 -110 16 -110 2 0 -5 -7 -10 -16 -10 -9 0 -14 4 -12 8 2 5
17 39 33 75 40 89 55 88 100 -5z m195 62 c0 -5 -11 -10 -25 -10 -23 0 -24 -4
-27 -62 -4 -85 -26 -90 -30 -6 -3 59 -4 63 -27 63 -13 0 -26 6 -28 13 -4 9 14
12 66 12 41 0 71 -4 71 -10z m167 -2 c-2 -8 -21 -13 -48 -13 -34 0 -44 -4 -47
-17 -3 -15 4 -18 42 -18 25 0 46 -4 46 -10 0 -5 -20 -10 -45 -10 -41 0 -45 -2
-45 -25 0 -23 3 -25 50 -25 28 0 50 -4 50 -10 0 -6 -28 -10 -65 -10 l-65 0 0
75 0 75 66 0 c48 0 65 -3 61 -12z m-2032 -117 c3 -5 1 -13 -5 -16 -15 -9 -43
3 -35 15 8 13 32 13 40 1z m895 -6 c0 -8 -9 -15 -20 -15 -11 0 -20 7 -20 15 0
8 9 15 20 15 11 0 20 -7 20 -15z m1218 -2 c2 -8 -5 -13 -17 -13 -21 0 -35 13
-24 24 10 10 36 3 41 -11z"/>
<path d="M1526 2698 c-38 -89 -46 -111 -46 -119 0 -5 27 -9 60 -9 42 0 60 4
59 13 0 6 -13 44 -29 82 l-28 70 -16 -37z"/>
<path d="M3381 2657 c-17 -42 -31 -78 -31 -81 0 -3 29 -6 65 -6 l65 0 -25 65
c-40 107 -38 106 -74 22z"/>
<path d="M980 2174 c0 -53 1 -54 29 -54 35 0 61 23 61 54 0 29 -16 43 -57 49
l-33 5 0 -54z"/>
<path d="M1168 2201 c-4 -30 -3 -31 34 -31 26 0 41 5 45 16 7 20 -5 32 -44 40
-28 6 -31 4 -35 -25z"/>
<path d="M1542 2185 c-16 -35 -16 -35 18 -35 17 0 30 2 30 5 0 11 -24 55 -30
55 -4 0 -12 -11 -18 -25z"/>
<path d="M2283 2220 c-50 -20 -24 -100 32 -100 50 0 73 67 33 94 -25 18 -33
19 -65 6z"/>
<path d="M2470 2176 c0 -52 2 -56 23 -56 33 0 67 28 67 54 0 29 -17 44 -58 52
l-32 7 0 -57z"/>
<path d="M3160 2195 c0 -22 4 -25 40 -25 36 0 40 3 40 25 0 23 -4 25 -40 25
-36 0 -40 -2 -40 -25z"/>
<path d="M3537 2185 l-17 -35 35 0 36 0 -17 33 c-9 17 -17 33 -18 34 -2 2 -10
-13 -19 -32z"/>
</g>
</svg>
